<svg height="368pt" viewBox="0 0 368 368" width="368pt" xmlns="http://www.w3.org/2000/svg"><path d="m344 0h-320c-13.230469 0-24 10.769531-24 24v320c0 13.230469 10.769531 24 24 24h320c13.230469 0 24-10.769531 24-24v-320c0-13.230469-10.769531-24-24-24zm8 344c0 4.414062-3.585938 8-8 8h-320c-4.414062 0-8-3.585938-8-8v-320c0-4.40625 3.585938-8 8-8h320c4.414062 0 8 3.59375 8 8zm0 0"/><path d="m296 96c-4.425781 0-8 3.585938-8 8v160c0 4.425781 3.574219 8 8 8s8-3.574219 8-8v-160c0-4.414062-3.574219-8-8-8zm0 0"/><path d="m168 96h-96c-4.425781 0-8 3.585938-8 8v160c0 4.425781 3.574219 8 8 8s8-3.574219 8-8v-152h88c13.230469 0 24 10.769531 24 24v128c0 4.425781 3.574219 8 8 8s8-3.574219 8-8v-128c0-22.054688-17.945312-40-40-40zm0 0"/><path d="m136 160c-4.425781 0-8 3.585938-8 8v96c0 4.425781 3.574219 8 8 8s8-3.574219 8-8v-96c0-4.414062-3.574219-8-8-8zm0 0"/></svg>