<svg width="421" height="415" viewBox="0 0 421 415" fill="none" xmlns="http://www.w3.org/2000/svg">
<path d="M266.691 53.7603C201.763 8.6174 67.4842 50.3399 48.4049 145.903C-12.1223 449.068 266.648 359.155 335.793 336.789C404.937 314.423 347.852 110.189 266.691 53.7603Z" fill="#EFC91F"/>
<path d="M72.6446 283V266.9H76.0946L82.9446 276.525V266.9H86.9946V283H83.5196L76.6696 273.4V283H72.6446ZM97.0642 283.25C94.4475 283.25 92.4558 282.583 91.0892 281.25C89.7225 279.917 89.0392 277.842 89.0392 275.025C89.0392 272.042 89.7225 269.9 91.0892 268.6C92.4558 267.3 94.4475 266.65 97.0642 266.65C99.6808 266.65 101.672 267.3 103.039 268.6C104.406 269.9 105.089 272.042 105.089 275.025C105.089 277.842 104.406 279.917 103.039 281.25C101.672 282.583 99.6808 283.25 97.0642 283.25ZM97.0642 279.825C98.4142 279.825 99.3975 279.442 100.014 278.675C100.647 277.892 100.964 276.675 100.964 275.025C100.964 273.225 100.647 271.958 100.014 271.225C99.3975 270.475 98.4142 270.1 97.0642 270.1C95.6975 270.1 94.6975 270.475 94.0642 271.225C93.4475 271.958 93.1392 273.225 93.1392 275.025C93.1392 276.675 93.4475 277.892 94.0642 278.675C94.6975 279.442 95.6975 279.825 97.0642 279.825ZM111.791 283L105.641 266.9H109.841L113.941 278.4L118.066 266.9H122.291L116.141 283H111.791ZM130.853 283.25C128.237 283.25 126.245 282.583 124.878 281.25C123.512 279.917 122.828 277.842 122.828 275.025C122.828 272.042 123.512 269.9 124.878 268.6C126.245 267.3 128.237 266.65 130.853 266.65C133.47 266.65 135.462 267.3 136.828 268.6C138.195 269.9 138.878 272.042 138.878 275.025C138.878 277.842 138.195 279.917 136.828 281.25C135.462 282.583 133.47 283.25 130.853 283.25ZM130.853 279.825C132.203 279.825 133.187 279.442 133.803 278.675C134.437 277.892 134.753 276.675 134.753 275.025C134.753 273.225 134.437 271.958 133.803 271.225C133.187 270.475 132.203 270.1 130.853 270.1C129.487 270.1 128.487 270.475 127.853 271.225C127.237 271.958 126.928 273.225 126.928 275.025C126.928 276.675 127.237 277.892 127.853 278.675C128.487 279.442 129.487 279.825 130.853 279.825ZM146.056 283.25C144.989 283.25 143.989 283.167 143.056 283C142.139 282.85 141.347 282.625 140.681 282.325V278.9C141.414 279.217 142.222 279.475 143.106 279.675C144.006 279.875 144.856 279.975 145.656 279.975C146.656 279.975 147.397 279.883 147.881 279.7C148.381 279.517 148.631 279.117 148.631 278.5C148.631 278.083 148.506 277.75 148.256 277.5C148.022 277.25 147.631 277.033 147.081 276.85C146.547 276.65 145.814 276.417 144.881 276.15C143.781 275.817 142.906 275.45 142.256 275.05C141.606 274.633 141.139 274.133 140.856 273.55C140.572 272.967 140.431 272.25 140.431 271.4C140.431 269.867 140.981 268.692 142.081 267.875C143.181 267.058 144.806 266.65 146.956 266.65C147.889 266.65 148.797 266.725 149.681 266.875C150.564 267.008 151.281 267.167 151.831 267.35V270.8C151.114 270.517 150.389 270.308 149.656 270.175C148.939 270.042 148.239 269.975 147.556 269.975C146.656 269.975 145.922 270.058 145.356 270.225C144.806 270.392 144.531 270.775 144.531 271.375C144.531 271.725 144.631 272.008 144.831 272.225C145.031 272.425 145.372 272.608 145.856 272.775C146.356 272.942 147.031 273.142 147.881 273.375C149.197 273.725 150.206 274.15 150.906 274.65C151.606 275.133 152.089 275.7 152.356 276.35C152.622 276.983 152.756 277.7 152.756 278.5C152.756 279.917 152.206 281.067 151.106 281.95C150.006 282.817 148.322 283.25 146.056 283.25ZM160.169 283V266.9H172.044V270H164.194V273.375H171.119V276.525H164.194V279.9H172.044V283H160.169ZM184.459 283.25C183.392 283.25 182.392 283.167 181.459 283C180.542 282.85 179.751 282.625 179.084 282.325V278.9C179.817 279.217 180.626 279.475 181.509 279.675C182.409 279.875 183.259 279.975 184.059 279.975C185.059 279.975 185.801 279.883 186.284 279.7C186.784 279.517 187.034 279.117 187.034 278.5C187.034 278.083 186.909 277.75 186.659 277.5C186.426 277.25 186.034 277.033 185.484 276.85C184.951 276.65 184.217 276.417 183.284 276.15C182.184 275.817 181.309 275.45 180.659 275.05C180.009 274.633 179.542 274.133 179.259 273.55C178.976 272.967 178.834 272.25 178.834 271.4C178.834 269.867 179.384 268.692 180.484 267.875C181.584 267.058 183.209 266.65 185.359 266.65C186.292 266.65 187.201 266.725 188.084 266.875C188.967 267.008 189.684 267.167 190.234 267.35V270.8C189.517 270.517 188.792 270.308 188.059 270.175C187.342 270.042 186.642 269.975 185.959 269.975C185.059 269.975 184.326 270.058 183.759 270.225C183.209 270.392 182.934 270.775 182.934 271.375C182.934 271.725 183.034 272.008 183.234 272.225C183.434 272.425 183.776 272.608 184.259 272.775C184.759 272.942 185.434 273.142 186.284 273.375C187.601 273.725 188.609 274.15 189.309 274.65C190.009 275.133 190.492 275.7 190.759 276.35C191.026 276.983 191.159 277.7 191.159 278.5C191.159 279.917 190.609 281.067 189.509 281.95C188.409 282.817 186.726 283.25 184.459 283.25ZM193.201 283V266.9H205.076V270H197.226V273.375H204.151V276.525H197.226V279.9H205.076V283H193.201ZM206.995 283V266.9H210.97L215.345 275.825L219.695 266.9H223.645V283H219.62V273.75L216.445 280.25H214.22L211.02 273.75V283H206.995ZM226.185 283V266.9H230.21V283H226.185ZM232.752 283V266.9H236.202L243.052 276.525V266.9H247.102V283H243.627L236.777 273.4V283H232.752ZM257.172 283.25C254.555 283.25 252.563 282.583 251.197 281.25C249.83 279.917 249.147 277.842 249.147 275.025C249.147 272.042 249.83 269.9 251.197 268.6C252.563 267.3 254.555 266.65 257.172 266.65C259.788 266.65 261.78 267.3 263.147 268.6C264.513 269.9 265.197 272.042 265.197 275.025C265.197 277.842 264.513 279.917 263.147 281.25C261.78 282.583 259.788 283.25 257.172 283.25ZM257.172 279.825C258.522 279.825 259.505 279.442 260.122 278.675C260.755 277.892 261.072 276.675 261.072 275.025C261.072 273.225 260.755 271.958 260.122 271.225C259.505 270.475 258.522 270.1 257.172 270.1C255.805 270.1 254.805 270.475 254.172 271.225C253.555 271.958 253.247 273.225 253.247 275.025C253.247 276.675 253.555 277.892 254.172 278.675C254.805 279.442 255.805 279.825 257.172 279.825ZM271.898 283L265.748 266.9H269.948L274.048 278.4L278.173 266.9H282.398L276.248 283H271.898ZM290.961 283.25C288.344 283.25 286.352 282.583 284.986 281.25C283.619 279.917 282.936 277.842 282.936 275.025C282.936 272.042 283.619 269.9 284.986 268.6C286.352 267.3 288.344 266.65 290.961 266.65C293.577 266.65 295.569 267.3 296.936 268.6C298.302 269.9 298.986 272.042 298.986 275.025C298.986 277.842 298.302 279.917 296.936 281.25C295.569 282.583 293.577 283.25 290.961 283.25ZM290.961 279.825C292.311 279.825 293.294 279.442 293.911 278.675C294.544 277.892 294.861 276.675 294.861 275.025C294.861 273.225 294.544 271.958 293.911 271.225C293.294 270.475 292.311 270.1 290.961 270.1C289.594 270.1 288.594 270.475 287.961 271.225C287.344 271.958 287.036 273.225 287.036 275.025C287.036 276.675 287.344 277.892 287.961 278.675C288.594 279.442 289.594 279.825 290.961 279.825ZM306.163 283.25C305.097 283.25 304.097 283.167 303.163 283C302.247 282.85 301.455 282.625 300.788 282.325V278.9C301.522 279.217 302.33 279.475 303.213 279.675C304.113 279.875 304.963 279.975 305.763 279.975C306.763 279.975 307.505 279.883 307.988 279.7C308.488 279.517 308.738 279.117 308.738 278.5C308.738 278.083 308.613 277.75 308.363 277.5C308.13 277.25 307.738 277.033 307.188 276.85C306.655 276.65 305.922 276.417 304.988 276.15C303.888 275.817 303.013 275.45 302.363 275.05C301.713 274.633 301.247 274.133 300.963 273.55C300.68 272.967 300.538 272.25 300.538 271.4C300.538 269.867 301.088 268.692 302.188 267.875C303.288 267.058 304.913 266.65 307.063 266.65C307.997 266.65 308.905 266.725 309.788 266.875C310.672 267.008 311.388 267.167 311.938 267.35V270.8C311.222 270.517 310.497 270.308 309.763 270.175C309.047 270.042 308.347 269.975 307.663 269.975C306.763 269.975 306.03 270.058 305.463 270.225C304.913 270.392 304.638 270.775 304.638 271.375C304.638 271.725 304.738 272.008 304.938 272.225C305.138 272.425 305.48 272.608 305.963 272.775C306.463 272.942 307.138 273.142 307.988 273.375C309.305 273.725 310.313 274.15 311.013 274.65C311.713 275.133 312.197 275.7 312.463 276.35C312.73 276.983 312.863 277.7 312.863 278.5C312.863 279.917 312.313 281.067 311.213 281.95C310.113 282.817 308.43 283.25 306.163 283.25Z" fill="black"/>
<g clip-path="url(#clip0)">
<path d="M236.311 122.166H234.826C234.533 122.166 234.295 122.403 234.295 122.695V142.565C234.295 142.858 234.533 143.094 234.826 143.094H236.311C236.604 143.094 236.841 142.858 236.841 142.565V122.695C236.841 122.403 236.604 122.166 236.311 122.166Z" fill="#3F3D56"/>
<path d="M226.64 83H159.534C154.548 83 150.505 87.0322 150.505 92.0062V246.647C150.505 251.621 154.548 255.654 159.534 255.654H226.64C231.626 255.654 235.669 251.621 235.669 246.647V92.0062C235.669 87.0322 231.626 83 226.64 83Z" fill="#3F3D56"/>
<path d="M223.815 87.4971H214.046V88.6694C214.046 89.3991 213.902 90.1216 213.622 90.7957C213.342 91.4698 212.932 92.0823 212.414 92.5981C211.897 93.114 211.283 93.5231 210.607 93.802C209.931 94.081 209.206 94.2244 208.475 94.224H177.406C176.675 94.2244 175.95 94.081 175.275 93.802C174.599 93.5231 173.984 93.114 173.467 92.5981C172.95 92.0823 172.539 91.4698 172.259 90.7957C171.979 90.1216 171.835 89.3991 171.835 88.6694V87.4971H162.688C160.894 87.4971 159.174 88.208 157.906 89.4733C156.637 90.7386 155.925 92.4547 155.925 94.2441V244.421C155.925 246.211 156.637 247.927 157.906 249.192C159.174 250.457 160.894 251.168 162.688 251.168H223.815C225.609 251.168 227.329 250.457 228.598 249.192C229.866 247.927 230.579 246.211 230.579 244.421V94.2556C230.58 93.3686 230.407 92.49 230.067 91.6701C229.728 90.8502 229.23 90.1051 228.602 89.4773C227.974 88.8496 227.228 88.3516 226.406 88.0118C225.585 87.672 224.704 87.4971 223.815 87.4971Z" fill="white"/>
<path d="M195.869 88.1561H185.769C185.274 88.1561 184.872 88.5564 184.872 89.0501V89.6698C184.872 90.1635 185.274 90.5637 185.769 90.5637H195.869C196.363 90.5637 196.765 90.1635 196.765 89.6698V89.0501C196.765 88.5564 196.363 88.1561 195.869 88.1561Z" fill="#E6E8EC"/>
<path d="M199.934 90.7273C200.691 90.7273 201.305 90.1151 201.305 89.36C201.305 88.605 200.691 87.9928 199.934 87.9928C199.177 87.9928 198.563 88.605 198.563 89.36C198.563 90.1151 199.177 90.7273 199.934 90.7273Z" fill="#E6E8EC"/>
<path d="M193.607 187.517C202.505 187.517 209.718 180.322 209.718 171.446C209.718 162.571 202.505 155.376 193.607 155.376C184.71 155.376 177.497 162.571 177.497 171.446C177.497 180.322 184.71 187.517 193.607 187.517Z" fill="white"/>
<path d="M214.797 169.202C214.797 173.451 213.534 177.603 211.168 181.135C208.802 184.667 205.439 187.42 201.504 189.046C197.569 190.671 193.24 191.097 189.063 190.268C184.886 189.439 181.05 187.393 178.039 184.389C175.027 181.385 172.977 177.558 172.146 173.391C171.315 169.225 171.742 164.906 173.372 160.981C175.002 157.057 177.762 153.702 181.303 151.342C184.844 148.982 189.007 147.723 193.265 147.723C196.093 147.723 198.893 148.279 201.505 149.358C204.118 150.438 206.491 152.02 208.491 154.014C210.49 156.009 212.076 158.377 213.158 160.983C214.24 163.589 214.797 166.382 214.797 169.202ZM190.776 180.572L206.749 164.639C206.878 164.51 206.981 164.357 207.051 164.189C207.121 164.021 207.157 163.841 207.157 163.659C207.157 163.476 207.121 163.296 207.051 163.128C206.981 162.96 206.878 162.807 206.749 162.678L204.783 160.732C204.655 160.603 204.502 160.501 204.333 160.431C204.165 160.362 203.985 160.326 203.802 160.326C203.62 160.326 203.439 160.362 203.271 160.431C203.103 160.501 202.95 160.603 202.821 160.732L189.794 173.727L183.711 167.646C183.45 167.386 183.097 167.241 182.728 167.241C182.36 167.241 182.007 167.386 181.746 167.646L179.781 169.617C179.521 169.878 179.375 170.23 179.375 170.598C179.375 170.965 179.521 171.317 179.781 171.578L188.811 180.583C188.94 180.712 189.094 180.814 189.262 180.884C189.431 180.954 189.612 180.99 189.794 180.99C189.977 180.99 190.157 180.954 190.326 180.884C190.495 180.814 190.648 180.712 190.777 180.583L190.776 180.572Z" fill="#387AD6"/>
<path d="M153.172 117.038H152.949C152.656 117.038 152.419 117.275 152.419 117.567V122.702C152.419 122.994 152.656 123.231 152.949 123.231H153.172C153.465 123.231 153.702 122.994 153.702 122.702V117.567C153.702 117.275 153.465 117.038 153.172 117.038Z" fill="#3F3D56"/>
<path d="M153.288 128.379H152.902C152.609 128.379 152.372 128.615 152.372 128.908V138.629C152.372 138.921 152.609 139.158 152.902 139.158H153.288C153.581 139.158 153.818 138.921 153.818 138.629V128.908C153.818 128.615 153.581 128.379 153.288 128.379Z" fill="#3F3D56"/>
<path d="M153.241 142.93H152.925C152.633 142.93 152.395 143.167 152.395 143.459V153.273C152.395 153.565 152.633 153.802 152.925 153.802H153.241C153.534 153.802 153.772 153.565 153.772 153.273V143.459C153.772 143.167 153.534 142.93 153.241 142.93Z" fill="#3F3D56"/>
<path d="M135.336 171.679C135.373 171.714 135.421 171.737 135.471 171.743C135.522 171.75 135.573 171.74 135.618 171.715C135.523 171.716 135.428 171.704 135.336 171.679Z" fill="url(#paint0_linear)"/>
<path d="M145.98 175.832L145.702 177.341L145.487 178.496L145.098 180.609L141.316 183.25C141.316 183.25 140.975 182.959 140.413 182.5C138.864 181.227 135.607 178.635 133.215 177.244C132.6 176.853 131.934 176.547 131.237 176.335L145.98 175.832Z" fill="#FEB9B9"/>
<path d="M143.206 176.955C143.206 176.955 147.615 177.71 147.873 175.832C148.131 173.954 145.603 172.939 143.462 172.812C141.32 172.686 128.464 173.567 128.464 173.567C128.464 173.567 126.196 176.584 134.386 177.089L143.206 176.955Z" fill="#3F3D56"/>
<path d="M152.847 114.979H129.784V142.26H152.847V114.979Z" fill="#2F2E41"/>
<path opacity="0.1" d="M152.847 115.103H129.784V142.384H152.847V115.103Z" fill="black"/>
<path d="M102.753 161.68C102.373 161.775 101.888 162.142 101.348 162.672C99.0239 164.967 95.6947 170.355 95.6947 170.355C91.4384 165.297 96.1483 161.301 98.156 159.928C98.6441 159.596 98.972 159.413 98.972 159.413L102.753 161.68Z" fill="#FEB9B9"/>
<path d="M145.727 123.589C145.727 123.589 146.861 131.509 150.768 133.395C154.675 135.281 145.727 138.805 145.727 138.805L133.503 134.276C133.503 134.276 140.435 132.012 139.048 125.349L145.727 123.589Z" fill="#FEB9B9"/>
<path d="M132.62 171.236L132.343 172.74L132.118 173.9L131.729 176.012L127.947 178.65C127.947 178.65 127.606 178.362 127.044 177.903C125.495 176.63 122.238 174.039 119.843 172.648C119.228 172.256 118.562 171.95 117.864 171.738L132.62 171.236Z" fill="#FEB9B9"/>
<path d="M129.349 173.091C129.349 173.091 133.305 173.119 133.543 171.236C133.782 169.352 131.387 168.342 129.349 168.216C127.31 168.09 114.925 169.03 114.925 169.03C114.925 169.03 113.168 172.587 120.958 173.091L129.349 173.091Z" fill="#2F2E41"/>
<path d="M157.09 202.68C156.918 202.595 156.744 202.507 156.574 202.422L156.109 201.837L150.011 194.124V194.258C149.97 195.546 149.531 205.753 146.106 206.696C142.452 207.701 138.043 207.953 136.033 201.165C134.023 194.376 130.351 179.542 126.58 178.661L132.19 174.073C132.19 174.073 135.904 178.406 137.417 182.554C137.361 182.296 134.796 170.342 136.901 168.227H155.304C155.304 168.227 158.145 176.299 160.092 180.297C161.608 183.401 163.884 190.741 165.349 195.709C166.799 200.613 161.703 204.944 157.09 202.68Z" fill="#3F3D56"/>
<path opacity="0.1" d="M156.566 170.481C153.725 172.158 141.253 171.475 137.196 171.202L136.09 171.122C135.972 171.122 136.108 171.055 136.108 171.055L136.222 169.914L139.247 162.247L155.44 152.879C155.112 153.866 155.004 155.376 155.03 157.104C155.104 162.659 156.566 170.481 156.566 170.481Z" fill="black"/>
<path d="M156.566 170.102C153.725 171.779 141.253 171.096 137.196 170.823L136.09 170.746L135.907 170.731L136.109 170.679L137.105 170.422L139.246 161.873L155.44 152.508C155.112 153.495 155.003 155.005 155.029 156.734C155.104 162.283 156.566 170.102 156.566 170.102Z" fill="#EFEFEF"/>
<path opacity="0.1" d="M155.019 156.728C151.726 157.486 144.479 159.708 141.695 165.076C139.838 168.649 138.275 170.182 137.185 170.823L136.08 170.746C136.087 170.724 136.093 170.701 136.098 170.679L137.095 170.421L139.236 161.873L155.429 152.508C155.105 153.49 154.993 155 155.019 156.728Z" fill="black"/>
<path opacity="0.1" d="M98.972 159.418L102.753 161.68C102.373 161.776 101.888 162.142 101.348 162.672C101.033 161.755 99.0559 160.474 98.156 159.928C98.6439 159.601 98.972 159.418 98.972 159.418Z" fill="black"/>
<path opacity="0.1" d="M135.406 170.893C135.365 170.915 135.318 170.923 135.271 170.916C135.225 170.91 135.182 170.889 135.148 170.857C135.232 170.881 135.319 170.894 135.406 170.893Z" fill="black"/>
<path d="M143.963 132.892C143.963 132.892 140.559 133.268 138.165 130.754C138.165 130.754 128.092 133.647 124.68 140.183C121.269 146.719 98.0784 159.544 98.0784 159.544C98.0784 159.544 102.113 161.806 101.733 162.937L116.984 154.137C116.984 154.137 122.407 150.241 123.913 149.36C125.419 148.479 133.746 143.074 135.51 157.782C137.274 172.491 135.51 170.731 135.51 170.731C135.51 170.731 138.03 171.612 141.685 164.571C145.339 157.53 156.68 155.896 156.68 155.896L157.31 148.482C157.31 148.482 159.56 143.566 157.827 141.526C157.302 140.921 156.953 140.185 156.817 139.397C156.53 137.514 156.817 134.376 160.831 131.769C167.006 127.745 169.4 124.478 169.4 124.478C169.4 124.478 169.526 122.087 165.745 120.956C161.964 119.825 146.589 113.665 146.589 113.665L146.073 115.804L158.204 124.344C158.204 124.344 152.155 129.239 147.357 129.121C147.356 129.121 148.247 132.766 143.963 132.892Z" fill="#387AD6"/>
<path opacity="0.1" d="M146.297 127.036C145.999 126.029 145.767 125.003 145.6 123.965L138.921 125.725C139.216 126.997 139.163 128.325 138.769 129.569C140.134 129.933 141.577 129.886 142.916 129.436C144.255 128.985 145.432 128.151 146.297 127.036Z" fill="black"/>
<path d="M140.75 129.435C144.717 129.435 147.932 126.227 147.932 122.27C147.932 118.313 144.717 115.106 140.75 115.106C136.783 115.106 133.567 118.313 133.567 122.27C133.567 126.227 136.783 129.435 140.75 129.435Z" fill="#FEB9B9"/>
<path opacity="0.1" d="M148.563 179.972C148.563 179.972 152.721 188.144 151.46 190.656L148.563 179.972Z" fill="black"/>
<path d="M144.569 105.723C146.563 105.949 148.456 106.802 150.419 107.268C150.91 107.42 151.432 107.44 151.933 107.325C152.695 107.09 153.315 106.294 154.105 106.318C154.591 106.333 155.022 106.663 155.422 106.98C156.064 107.47 156.668 108.007 157.23 108.587C158.583 110.053 159.423 112.027 160.657 113.621C161.891 115.216 163.652 117.086 165.406 116.355C164.213 120.992 160.492 123.893 156.264 124.182C154.578 124.298 152.85 123.948 151.217 124.44C150.811 124.606 150.381 124.71 149.944 124.749C149.004 124.749 148.247 123.888 147.661 123.051C146.287 121.083 145.199 118.849 143.652 117.053C143.136 116.458 142.539 115.894 141.816 115.786C141.093 115.678 140.429 116.023 139.786 116.355C138.725 116.904 137.64 117.471 136.816 118.416C135.992 119.362 135.473 120.758 135.814 122.023C135.997 122.709 136.416 123.327 136.423 124.043C136.439 125.187 135.426 126.022 135.228 127.135C135.183 127.602 135.166 128.072 135.179 128.541C135.091 130.066 134.09 131.313 133.048 132.274C132.64 132.645 132.191 133.047 132.072 133.622C131.992 134.016 132.072 134.43 132.02 134.83C131.868 135.819 130.879 136.322 130.003 136.451C128.98 136.602 127.935 136.478 126.976 136.092C128.2 135.515 128.955 133.872 128.67 132.401C128.281 130.36 126.225 128.894 126.401 126.818C126.498 126.181 126.689 125.562 126.969 124.981C127.417 123.859 127.743 122.692 127.941 121.5C128.095 120.581 128.171 119.604 127.881 118.726C127.623 117.927 127.083 117.291 126.626 116.616C126.006 115.697 125.517 114.698 125.172 113.645C125.047 113.333 124.999 112.995 125.033 112.661C125.136 112.266 125.357 111.911 125.666 111.643C126.789 110.465 127.99 109.242 129.496 108.905C130.214 108.786 130.945 108.758 131.671 108.822C132.932 108.862 134.195 108.808 135.449 108.662C136.482 108.541 138.228 108.557 139.103 107.889C139.919 107.266 140.379 106.483 141.384 106.086C142.401 105.71 143.495 105.585 144.571 105.723L144.569 105.723Z" fill="#2F2E41"/>
<path d="M278.03 255.225C283.784 255.225 288.449 254.438 288.449 253.467C288.449 252.496 283.784 251.709 278.03 251.709C272.275 251.709 267.611 252.496 267.611 253.467C267.611 254.438 272.275 255.225 278.03 255.225Z" fill="#387AD6"/>
<path d="M282.339 250.593C282.814 250.206 283.16 249.684 283.331 249.096C283.461 248.504 283.207 247.803 282.637 247.574C281.999 247.331 281.317 247.773 280.802 248.217C280.287 248.662 279.693 249.171 279.017 249.075C279.365 248.762 279.625 248.363 279.773 247.919C279.921 247.474 279.951 246.999 279.86 246.54C279.829 246.349 279.748 246.171 279.624 246.023C279.272 245.645 278.628 245.806 278.207 246.106C276.859 247.049 276.484 248.877 276.476 250.517C276.338 249.926 276.455 249.308 276.45 248.708C276.445 248.108 276.281 247.415 275.766 247.098C275.448 246.928 275.09 246.844 274.729 246.855C274.123 246.832 273.449 246.894 273.035 247.336C272.516 247.884 272.656 248.804 273.102 249.403C273.548 250.003 274.229 250.388 274.856 250.804C275.358 251.103 275.785 251.51 276.107 251.996C276.145 252.064 276.176 252.136 276.199 252.211H279.985C280.839 251.78 281.63 251.236 282.338 250.594L282.339 250.593Z" fill="#387AD6"/>
<path d="M136.372 256C140.169 256 143.248 255.481 143.248 254.84C143.248 254.2 140.169 253.68 136.372 253.68C132.574 253.68 129.496 254.2 129.496 254.84C129.496 255.481 132.574 256 136.372 256Z" fill="#EFEFEF"/>
<path d="M139.216 252.943C139.529 252.688 139.757 252.343 139.87 251.956C139.92 251.761 139.902 251.555 139.819 251.373C139.735 251.19 139.592 251.041 139.412 250.951C138.991 250.791 138.542 251.082 138.202 251.376C137.861 251.669 137.47 252.005 137.023 251.942C137.253 251.735 137.425 251.472 137.522 251.178C137.62 250.885 137.639 250.572 137.579 250.269C137.559 250.143 137.505 250.025 137.423 249.928C137.192 249.679 136.767 249.784 136.488 249.982C135.599 250.606 135.351 251.811 135.346 252.894C135.255 252.503 135.332 252.096 135.329 251.7C135.325 251.304 135.218 250.847 134.877 250.637C134.667 250.525 134.431 250.47 134.193 250.477C133.793 250.462 133.348 250.503 133.075 250.794C132.733 251.156 132.825 251.763 133.119 252.159C133.413 252.555 133.863 252.809 134.277 253.083C134.608 253.28 134.89 253.548 135.103 253.868C135.129 253.913 135.149 253.961 135.165 254.01H137.663C138.226 253.725 138.748 253.366 139.216 252.942V252.943Z" fill="#EFEFEF"/>
<path d="M97.4851 256C101.283 256 104.361 255.481 104.361 254.84C104.361 254.2 101.283 253.68 97.4851 253.68C93.6876 253.68 90.6091 254.2 90.6091 254.84C90.6091 255.481 93.6876 256 97.4851 256Z" fill="#EFEFEF"/>
<path d="M100.329 252.943C100.642 252.688 100.871 252.343 100.984 251.956C101.034 251.761 101.015 251.555 100.932 251.373C100.849 251.19 100.705 251.041 100.526 250.951C100.105 250.791 99.6551 251.082 99.3149 251.376C98.9748 251.669 98.583 252.005 98.1367 251.942C98.3664 251.735 98.5383 251.472 98.6357 251.178C98.7331 250.885 98.7527 250.572 98.6925 250.269C98.6725 250.143 98.6187 250.025 98.5369 249.928C98.3053 249.679 97.8802 249.784 97.6016 249.982C96.7124 250.606 96.4644 251.811 96.4593 252.894C96.3688 252.503 96.4456 252.096 96.4422 251.7C96.4387 251.304 96.331 250.847 95.9906 250.637C95.7807 250.525 95.5447 250.47 95.3066 250.477C94.9064 250.462 94.4619 250.503 94.1882 250.794C93.8461 251.156 93.9385 251.763 94.2326 252.159C94.5267 252.555 94.9764 252.809 95.3904 253.083C95.7214 253.28 96.0037 253.548 96.2164 253.868C96.242 253.913 96.2627 253.961 96.278 254.01H98.7763C99.3396 253.725 99.8619 253.366 100.329 252.942V252.943Z" fill="#EFEFEF"/>
<path d="M296 255.338H87V255.758H296V255.338Z" fill="#2F2E41"/>
<path d="M285.798 94.6705C285.798 94.6705 263.98 93.3573 266.551 108.608C266.551 108.608 266.032 111.303 268.489 112.526C268.489 112.526 268.528 111.397 270.728 111.782C271.511 111.911 272.306 111.949 273.099 111.895C274.167 111.825 275.184 111.411 275.995 110.714C275.995 110.714 282.129 108.186 284.513 98.1882C284.513 98.1882 286.277 96.0067 286.207 95.4457L282.525 97.0145C282.525 97.0145 283.785 99.664 282.785 101.865C282.785 101.865 282.665 97.1092 281.958 97.2127C281.815 97.2335 280.046 98.1302 280.046 98.1302C280.046 98.1302 282.209 102.744 280.577 106.099C280.577 106.099 281.196 100.413 279.369 98.4638L276.778 99.9733C276.778 99.9733 279.307 104.74 277.592 108.63C277.592 108.63 278.032 102.664 276.231 100.34L273.884 102.168C273.884 102.168 276.26 106.864 274.811 110.091C274.811 110.091 274.622 103.148 273.376 102.623C273.376 102.623 271.321 104.432 271.007 105.172C271.007 105.172 272.635 108.584 271.624 110.383C271.624 110.383 271.005 105.756 270.497 105.73C270.497 105.73 268.45 108.795 268.237 110.899C268.237 110.899 268.325 107.774 270.002 105.441C270.002 105.441 268.022 105.779 266.866 107.057C266.866 107.057 267.185 104.891 270.507 104.7C270.507 104.7 272.199 102.374 272.65 102.234C272.65 102.234 269.349 101.957 267.346 102.844C267.346 102.844 269.108 100.8 273.256 101.73L275.575 99.8409C275.575 99.8409 271.227 99.2489 269.382 99.903C269.382 99.903 271.505 98.0937 276.2 99.412L278.724 97.9075C278.724 97.9075 275.016 97.1113 272.808 97.3906C272.808 97.3906 275.14 96.137 279.465 97.4966L281.279 96.6881C281.279 96.6881 278.563 96.1557 277.768 96.0705C276.972 95.9853 276.931 95.7681 276.931 95.7681C278.651 95.482 280.417 95.678 282.033 96.3343C282.033 96.3343 285.863 94.9109 285.798 94.6705Z" fill="#387AD6"/>
<path d="M255.904 86.5967C255.904 86.5967 246.058 86.0047 247.208 92.8958C247.208 92.8958 246.976 94.1133 248.084 94.6663C248.084 94.6663 248.102 94.1493 249.097 94.3277C249.45 94.387 249.809 94.4044 250.167 94.3794C250.65 94.3475 251.11 94.1586 251.476 93.8417C251.476 93.8417 254.248 92.6992 255.326 88.1811C255.326 88.1811 256.121 87.1964 256.09 86.943L254.427 87.6512C254.427 87.6512 254.994 88.8479 254.548 89.843C254.548 89.843 254.494 87.6948 254.175 87.7443C254.11 87.7443 253.31 88.16 253.31 88.16C253.31 88.16 254.289 90.2459 253.551 91.7607C253.551 91.7607 253.83 89.1914 253.004 88.31L251.833 89.0029C251.833 89.0029 252.976 91.156 252.201 92.9138C252.201 92.9138 252.4 90.2179 251.587 89.1685L250.527 89.9957C250.527 89.9957 251.6 92.1178 250.947 93.576C250.947 93.576 250.859 90.4381 250.296 90.2004C250.296 90.2004 249.369 91.0171 249.226 91.3532C249.226 91.3532 249.962 92.9041 249.506 93.7079C249.506 93.7079 249.226 91.6168 248.988 91.6059C248.988 91.6059 248.063 92.9919 247.967 93.9322C248.013 93.055 248.288 92.205 248.765 91.4664C248.231 91.5673 247.738 91.8216 247.347 92.198C247.347 92.198 247.493 91.2183 248.993 91.1331C248.993 91.1331 249.77 90.0812 249.962 90.0165C249.962 90.0165 248.47 89.8925 247.565 90.2937C247.565 90.2937 248.361 89.3709 250.234 89.7897L251.271 88.9366C251.271 88.9366 249.305 88.6756 248.471 88.9634C248.471 88.9634 249.43 88.1466 251.552 88.7412L252.692 88.0614C252.692 88.0614 251.016 87.7022 250.018 87.8304C250.018 87.8304 251.073 87.2643 253.027 87.8766L253.843 87.5121C253.843 87.5121 252.615 87.2717 252.254 87.2329C251.893 87.194 251.876 87.0959 251.876 87.0959C252.654 86.9668 253.452 87.0563 254.182 87.3544C254.182 87.3544 255.934 86.7044 255.904 86.5967Z" fill="#3F3D56"/>
<path d="M104.06 191.797C104.06 191.797 94.2132 191.205 95.3636 198.096C95.3636 198.096 95.132 199.314 96.2393 199.867C96.2393 199.867 96.2574 199.35 97.2524 199.528C97.6058 199.588 97.965 199.605 98.3225 199.58C98.8058 199.548 99.2654 199.359 99.631 199.042C99.631 199.042 102.404 197.9 103.481 193.382C103.481 193.382 104.277 192.397 104.246 192.144L102.582 192.852C102.582 192.852 103.15 194.049 102.704 195.044C102.704 195.044 102.649 192.896 102.331 192.945C102.266 192.945 101.465 193.361 101.465 193.361C101.465 193.361 102.445 195.447 101.706 196.961C101.706 196.961 101.986 194.392 101.16 193.511L99.9883 194.204C99.9883 194.204 101.131 196.357 100.356 198.114C100.356 198.114 100.556 195.419 99.7422 194.369L98.6823 195.196C98.6823 195.196 99.7551 197.319 99.1021 198.777C99.1021 198.777 99.0141 195.639 98.4517 195.401C98.4517 195.401 97.524 196.218 97.3814 196.554C97.3814 196.554 98.1173 198.105 97.6613 198.909C97.6613 198.909 97.3814 196.817 97.1431 196.807C97.1431 196.807 96.218 198.193 96.1222 199.133C96.1685 198.256 96.4436 197.406 96.9203 196.667C96.3865 196.768 95.8939 197.022 95.503 197.399C95.503 197.399 95.6482 196.419 97.1484 196.334C97.1484 196.334 97.9258 195.282 98.1175 195.217C98.1175 195.217 96.6251 195.093 95.7206 195.494C95.7206 195.494 96.5161 194.572 98.3896 194.99L99.4261 194.137C99.4261 194.137 97.4601 193.876 96.6265 194.164C96.6265 194.164 97.5852 193.347 99.7074 193.942L100.848 193.262C100.848 193.262 99.1711 192.903 98.1736 193.031C98.1736 193.031 99.2281 192.465 101.182 193.077L101.998 192.713C101.998 192.713 100.771 192.472 100.41 192.434C100.049 192.395 100.031 192.297 100.031 192.297C100.809 192.168 101.608 192.257 102.338 192.555C102.338 192.555 104.09 191.905 104.06 191.797Z" fill="#3F3D56"/>
</g>
<defs>
<linearGradient id="paint0_linear" x1="135.479" y1="171.746" x2="135.479" y2="171.679" gradientUnits="userSpaceOnUse">
<stop stop-color="#808080" stop-opacity="0.251"/>
<stop offset="0.54" stop-color="#808080" stop-opacity="0.122"/>
<stop offset="1" stop-color="#808080" stop-opacity="0.102"/>
</linearGradient>
<clipPath id="clip0">
<rect width="209" height="173" fill="white" transform="translate(87 83)"/>
</clipPath>
</defs>
</svg>
