<svg width="338" height="346" viewBox="0 0 338 346" fill="none" xmlns="http://www.w3.org/2000/svg">
<path d="M6.00006 158C-20.7999 232.4 54.2547 351.304 151.5 345C460 325 301 79 261.5 18C222 -43 39.5001 65 6.00006 158Z" fill="#EFC91F"/>
<path d="M50.3502 229V212.9H54.3752V225.9H61.9752V229H50.3502ZM70.8146 229.25C68.198 229.25 66.2063 228.583 64.8396 227.25C63.473 225.917 62.7896 223.842 62.7896 221.025C62.7896 218.042 63.473 215.9 64.8396 214.6C66.2063 213.3 68.198 212.65 70.8146 212.65C73.4313 212.65 75.423 213.3 76.7896 214.6C78.1563 215.9 78.8396 218.042 78.8396 221.025C78.8396 223.842 78.1563 225.917 76.7896 227.25C75.423 228.583 73.4313 229.25 70.8146 229.25ZM70.8146 225.825C72.1646 225.825 73.148 225.442 73.7646 224.675C74.398 223.892 74.7146 222.675 74.7146 221.025C74.7146 219.225 74.398 217.958 73.7646 217.225C73.148 216.475 72.1646 216.1 70.8146 216.1C69.448 216.1 68.448 216.475 67.8146 217.225C67.198 217.958 66.8896 219.225 66.8896 221.025C66.8896 222.675 67.198 223.892 67.8146 224.675C68.448 225.442 69.448 225.825 70.8146 225.825ZM83.5922 229.25C82.9089 229.25 82.2505 229.2 81.6172 229.1C81.0005 229.017 80.4255 228.875 79.8922 228.675V225.3C80.2922 225.467 80.7422 225.6 81.2422 225.7C81.7422 225.783 82.2505 225.825 82.7672 225.825C83.7505 225.825 84.4422 225.633 84.8422 225.25C85.2589 224.85 85.4672 224.192 85.4672 223.275V212.9H89.4922V224.025C89.4922 225.708 88.9922 227 87.9922 227.9C86.9922 228.8 85.5255 229.25 83.5922 229.25ZM90.5484 229L96.6984 212.9H101.048L107.198 229H102.998L101.548 225.35H96.1734L94.7484 229H90.5484ZM96.7234 222.375H100.998L98.8484 216.775L96.7234 222.375ZM114.608 229V212.9H126.483V216H118.633V219.375H125.558V222.525H118.633V225.9H126.483V229H114.608ZM133.527 229.25C132.46 229.25 131.46 229.167 130.527 229C129.61 228.85 128.819 228.625 128.152 228.325V224.9C128.885 225.217 129.694 225.475 130.577 225.675C131.477 225.875 132.327 225.975 133.127 225.975C134.127 225.975 134.869 225.883 135.352 225.7C135.852 225.517 136.102 225.117 136.102 224.5C136.102 224.083 135.977 223.75 135.727 223.5C135.494 223.25 135.102 223.033 134.552 222.85C134.019 222.65 133.285 222.417 132.352 222.15C131.252 221.817 130.377 221.45 129.727 221.05C129.077 220.633 128.61 220.133 128.327 219.55C128.044 218.967 127.902 218.25 127.902 217.4C127.902 215.867 128.452 214.692 129.552 213.875C130.652 213.058 132.277 212.65 134.427 212.65C135.36 212.65 136.269 212.725 137.152 212.875C138.035 213.008 138.752 213.167 139.302 213.35V216.8C138.585 216.517 137.86 216.308 137.127 216.175C136.41 216.042 135.71 215.975 135.027 215.975C134.127 215.975 133.394 216.058 132.827 216.225C132.277 216.392 132.002 216.775 132.002 217.375C132.002 217.725 132.102 218.008 132.302 218.225C132.502 218.425 132.844 218.608 133.327 218.775C133.827 218.942 134.502 219.142 135.352 219.375C136.669 219.725 137.677 220.15 138.377 220.65C139.077 221.133 139.56 221.7 139.827 222.35C140.094 222.983 140.227 223.7 140.227 224.5C140.227 225.917 139.677 227.067 138.577 227.95C137.477 228.817 135.794 229.25 133.527 229.25ZM142.269 229V212.9H150.194C151.477 212.9 152.536 213.158 153.369 213.675C154.202 214.175 154.819 214.858 155.219 215.725C155.636 216.592 155.844 217.567 155.844 218.65C155.844 219.75 155.611 220.725 155.144 221.575C154.677 222.425 154.011 223.092 153.144 223.575C152.294 224.042 151.277 224.275 150.094 224.275H146.294V229H142.269ZM146.294 221.175H149.194C150.044 221.175 150.677 220.942 151.094 220.475C151.527 220.008 151.744 219.392 151.744 218.625C151.744 217.792 151.544 217.15 151.144 216.7C150.761 216.233 150.152 216 149.319 216H146.294V221.175ZM157.43 229V212.9H169.305V216H161.455V219.375H168.38V222.525H161.455V225.9H169.305V229H157.43ZM179.374 229.25C176.558 229.25 174.408 228.533 172.924 227.1C171.458 225.65 170.724 223.642 170.724 221.075C170.724 218.392 171.441 216.317 172.874 214.85C174.324 213.383 176.483 212.65 179.349 212.65C180.333 212.65 181.208 212.725 181.974 212.875C182.758 213.025 183.508 213.225 184.224 213.475V217C182.774 216.4 181.249 216.1 179.649 216.1C177.983 216.1 176.758 216.5 175.974 217.3C175.208 218.1 174.824 219.358 174.824 221.075C174.824 222.708 175.233 223.908 176.049 224.675C176.866 225.442 178.083 225.825 179.699 225.825C180.483 225.825 181.258 225.758 182.024 225.625C182.791 225.475 183.533 225.25 184.249 224.95V228.5C183.549 228.733 182.808 228.917 182.024 229.05C181.241 229.183 180.358 229.25 179.374 229.25ZM186.288 229V212.9H190.313V229H186.288ZM192.355 229L198.505 212.9H202.855L209.005 229H204.805L203.355 225.35H197.98L196.555 229H192.355ZM198.53 222.375H202.805L200.655 216.775L198.53 222.375ZM211.044 229V212.9H215.069V225.9H222.669V229H211.044ZM224.227 229V212.9H228.252V229H224.227ZM230.295 229V226.95L237.845 216.1H230.67V212.9H243.12V215.15L235.645 225.9H243.27V229H230.295ZM244.113 229L250.263 212.9H254.613L260.763 229H256.563L255.113 225.35H249.738L248.313 229H244.113ZM250.288 222.375H254.563L252.413 216.775L250.288 222.375ZM262.801 229V212.9H269.776C271.41 212.9 272.785 213.175 273.901 213.725C275.018 214.258 275.868 215.125 276.451 216.325C277.035 217.508 277.326 219.083 277.326 221.05C277.326 223.817 276.685 225.833 275.401 227.1C274.135 228.367 272.26 229 269.776 229H262.801ZM266.826 225.9H269.226C270.093 225.9 270.818 225.775 271.401 225.525C272.001 225.258 272.451 224.775 272.751 224.075C273.068 223.375 273.226 222.367 273.226 221.05C273.226 219.717 273.085 218.692 272.801 217.975C272.535 217.242 272.101 216.733 271.501 216.45C270.918 216.15 270.16 216 269.226 216H266.826V225.9ZM277.511 229L283.661 212.9H288.011L294.161 229H289.961L288.511 225.35H283.136L281.711 229H277.511ZM283.686 222.375H287.961L285.811 216.775L283.686 222.375ZM25.6798 255V238.9H37.5548V242H29.7048V245.375H36.6298V248.525H29.7048V251.9H37.5548V255H25.6798ZM39.4737 255V238.9H43.4487L47.8237 247.825L52.1737 238.9H56.1237V255H52.0987V245.75L48.9237 252.25H46.6987L43.4987 245.75V255H39.4737ZM69.6843 255L63.5343 238.9H67.7343L71.8343 250.4L75.9593 238.9H80.1843L74.0343 255H69.6843ZM81.8565 255V238.9H93.7315V242H85.8815V245.375H92.8065V248.525H85.8815V251.9H93.7315V255H81.8565ZM95.6505 255V238.9H99.1005L105.95 248.525V238.9H110V255H106.525L99.6755 245.4V255H95.6505ZM112.545 255V238.9H119.52C121.153 238.9 122.528 239.175 123.645 239.725C124.762 240.258 125.612 241.125 126.195 242.325C126.778 243.508 127.07 245.083 127.07 247.05C127.07 249.817 126.428 251.833 125.145 253.1C123.878 254.367 122.003 255 119.52 255H112.545ZM116.57 251.9H118.97C119.837 251.9 120.562 251.775 121.145 251.525C121.745 251.258 122.195 250.775 122.495 250.075C122.812 249.375 122.97 248.367 122.97 247.05C122.97 245.717 122.828 244.692 122.545 243.975C122.278 243.242 121.845 242.733 121.245 242.45C120.662 242.15 119.903 242 118.97 242H116.57V251.9ZM127.255 255L133.405 238.9H137.755L143.905 255H139.705L138.255 251.35H132.88L131.455 255H127.255ZM133.43 248.375H137.705L135.555 242.775L133.43 248.375ZM151.315 255V238.9H158.29C159.923 238.9 161.298 239.175 162.415 239.725C163.531 240.258 164.381 241.125 164.965 242.325C165.548 243.508 165.84 245.083 165.84 247.05C165.84 249.817 165.198 251.833 163.915 253.1C162.648 254.367 160.773 255 158.29 255H151.315ZM155.34 251.9H157.74C158.606 251.9 159.331 251.775 159.915 251.525C160.515 251.258 160.965 250.775 161.265 250.075C161.581 249.375 161.74 248.367 161.74 247.05C161.74 245.717 161.598 244.692 161.315 243.975C161.048 243.242 160.615 242.733 160.015 242.45C159.431 242.15 158.673 242 157.74 242H155.34V251.9ZM167.892 255V238.9H179.767V242H171.917V245.375H178.842V248.525H171.917V251.9H179.767V255H167.892ZM195.207 255.25C192.39 255.25 190.24 254.533 188.757 253.1C187.29 251.65 186.557 249.642 186.557 247.075C186.557 244.392 187.273 242.317 188.707 240.85C190.157 239.383 192.315 238.65 195.182 238.65C196.165 238.65 197.04 238.725 197.807 238.875C198.59 239.025 199.34 239.225 200.057 239.475V243C198.607 242.4 197.082 242.1 195.482 242.1C193.815 242.1 192.59 242.5 191.807 243.3C191.04 244.1 190.657 245.358 190.657 247.075C190.657 248.708 191.065 249.908 191.882 250.675C192.698 251.442 193.915 251.825 195.532 251.825C196.315 251.825 197.09 251.758 197.857 251.625C198.623 251.475 199.365 251.25 200.082 250.95V254.5C199.382 254.733 198.64 254.917 197.857 255.05C197.073 255.183 196.19 255.25 195.207 255.25ZM202.12 255V238.9H213.995V242H206.145V245.375H213.07V248.525H206.145V251.9H213.995V255H202.12ZM215.914 255V238.9H219.939V251.9H227.539V255H215.914ZM236.373 255.25C234.873 255.25 233.564 255.008 232.448 254.525C231.348 254.042 230.489 253.325 229.873 252.375C229.273 251.425 228.973 250.258 228.973 248.875V238.9H232.998V248.5C232.998 249.617 233.289 250.45 233.873 251C234.456 251.55 235.289 251.825 236.373 251.825C237.456 251.825 238.289 251.55 238.873 251C239.456 250.45 239.748 249.617 239.748 248.5V238.9H243.773V248.875C243.773 250.258 243.464 251.425 242.848 252.375C242.248 253.325 241.389 254.042 240.273 254.525C239.173 255.008 237.873 255.25 236.373 255.25ZM246.188 255V238.9H250.213V251.9H257.813V255H246.188ZM258.871 255L265.021 238.9H269.371L275.521 255H271.321L269.871 251.35H264.496L263.071 255H258.871ZM265.046 248.375H269.321L267.171 242.775L265.046 248.375ZM277.56 255V238.9H285.61C287.51 238.9 288.91 239.4 289.81 240.4C290.71 241.4 291.16 242.742 291.16 244.425C291.16 245.508 290.885 246.458 290.335 247.275C289.785 248.092 289.035 248.7 288.085 249.1C288.318 249.283 288.501 249.492 288.635 249.725C288.785 249.942 288.943 250.25 289.11 250.65L291.01 255H286.81L285.01 250.9C284.86 250.55 284.668 250.3 284.435 250.15C284.201 249.983 283.868 249.9 283.435 249.9H281.585V255H277.56ZM281.585 246.8H284.56C285.343 246.8 285.951 246.608 286.385 246.225C286.835 245.825 287.06 245.225 287.06 244.425C287.06 242.808 286.285 242 284.735 242H281.585V246.8ZM293.209 255V238.9H305.084V242H297.234V245.375H304.159V248.525H297.234V251.9H305.084V255H293.209ZM312.128 255.25C311.061 255.25 310.061 255.167 309.128 255C308.211 254.85 307.42 254.625 306.753 254.325V250.9C307.486 251.217 308.295 251.475 309.178 251.675C310.078 251.875 310.928 251.975 311.728 251.975C312.728 251.975 313.47 251.883 313.953 251.7C314.453 251.517 314.703 251.117 314.703 250.5C314.703 250.083 314.578 249.75 314.328 249.5C314.095 249.25 313.703 249.033 313.153 248.85C312.62 248.65 311.886 248.417 310.953 248.15C309.853 247.817 308.978 247.45 308.328 247.05C307.678 246.633 307.211 246.133 306.928 245.55C306.645 244.967 306.503 244.25 306.503 243.4C306.503 241.867 307.053 240.692 308.153 239.875C309.253 239.058 310.878 238.65 313.028 238.65C313.961 238.65 314.87 238.725 315.753 238.875C316.636 239.008 317.353 239.167 317.903 239.35V242.8C317.186 242.517 316.461 242.308 315.728 242.175C315.011 242.042 314.311 241.975 313.628 241.975C312.728 241.975 311.995 242.058 311.428 242.225C310.878 242.392 310.603 242.775 310.603 243.375C310.603 243.725 310.703 244.008 310.903 244.225C311.103 244.425 311.445 244.608 311.928 244.775C312.428 244.942 313.103 245.142 313.953 245.375C315.27 245.725 316.278 246.15 316.978 246.65C317.678 247.133 318.161 247.7 318.428 248.35C318.695 248.983 318.828 249.7 318.828 250.5C318.828 251.917 318.278 253.067 317.178 253.95C316.078 254.817 314.395 255.25 312.128 255.25Z" fill="black"/>
<path d="M173.105 194C223.857 194 265 190.783 265 186.814C265 182.845 223.857 179.627 173.105 179.627C122.352 179.627 81.209 182.845 81.209 186.814C81.209 190.783 122.352 194 173.105 194Z" fill="#3F3D56"/>
<path d="M251.165 173.464L252.026 179.786L245.997 180.361L246.858 172.601L251.165 173.464Z" fill="#A0616A"/>
<path d="M222.742 86.6756C222.742 86.6756 223.316 94.4347 223.316 94.7221C223.316 95.0095 219.296 114.839 219.296 114.839C219.296 114.839 213.554 125.759 219.296 125.472C225.038 125.184 223.316 115.126 223.316 115.126L229.345 98.458L226.761 86.6756L222.742 86.6756Z" fill="#A0616A"/>
<path d="M232.216 173.464L231.355 179.786L237.384 180.361L236.523 172.601L232.216 173.464Z" fill="#A0616A"/>
<path d="M225.613 114.264L224.177 116.275C224.177 116.275 223.316 124.897 224.177 127.771C225.038 130.644 226.761 143.864 226.761 144.726C226.761 145.588 227.048 146.163 226.761 146.45C226.474 146.737 225.613 146.737 226.187 147.312C226.761 147.887 226.761 149.611 226.761 149.611V151.048L230.493 172.314C230.493 172.314 228.197 174.9 229.919 174.9C231.642 174.9 237.958 174.9 237.671 172.027L237.097 171.739C237.097 171.739 236.235 152.772 236.522 151.91C236.81 151.048 236.522 149.324 236.522 149.324C236.522 149.324 235.948 148.462 236.522 148.174C237.097 147.887 237.097 145.588 237.097 145.588L239.681 128.058C239.681 128.058 241.977 139.84 243.413 140.99C244.848 142.139 244.561 145.013 244.561 145.013L245.71 170.302C245.71 170.302 244.561 173.176 245.71 173.751C246.858 174.326 251.739 176.337 252.026 173.464C252.313 170.59 253.748 145.588 253.748 144.438C253.748 143.289 253.461 142.714 253.748 141.852C254.036 140.99 253.461 140.99 253.748 140.99C254.036 140.99 253.174 140.128 253.174 139.553V125.472C253.174 125.472 253.461 122.598 253.748 122.023C254.036 121.448 253.461 120.874 253.748 120.011C254.036 119.149 253.174 116.275 253.174 116.275L240.255 112.827L225.613 114.264Z" fill="#2F2E41"/>
<path d="M235.661 178.636C235.661 178.636 237.097 177.2 235.087 177.2C233.797 177.226 232.526 177.519 231.355 178.062L229.919 183.234C229.919 183.234 224.034 187.976 230.637 187.401C237.24 186.827 236.235 187.258 236.235 187.258C236.235 187.258 238.245 186.683 238.532 186.108C238.819 185.533 237.958 177.2 237.958 177.2C237.958 177.2 237.097 179.499 235.661 178.636Z" fill="#2F2E41"/>
<path d="M248.006 178.636C248.006 178.636 246.571 177.2 248.581 177.2C249.871 177.226 251.142 177.519 252.313 178.062L253.748 183.234C253.748 183.234 259.634 187.976 253.031 187.401C246.427 186.827 246.571 187.258 246.571 187.258C246.571 187.258 244.561 186.683 244.274 186.108C243.987 185.533 245.71 177.199 245.71 177.199C245.71 177.199 246.571 179.499 248.006 178.636Z" fill="#2F2E41"/>
<path d="M229.345 63.9727C233.468 63.9727 236.81 60.6275 236.81 56.5009C236.81 52.3744 233.468 49.0291 229.345 49.0291C225.222 49.0291 221.88 52.3744 221.88 56.5009C221.88 60.6275 225.222 63.9727 229.345 63.9727Z" fill="#A0616A"/>
<path d="M226.761 61.9611C226.761 61.9611 227.909 67.7086 227.909 68.5708C227.909 69.4329 232.79 72.0193 232.79 72.0193L238.245 65.1222C238.245 65.1222 234.8 60.2368 234.8 59.0873L226.761 61.9611Z" fill="#A0616A"/>
<path d="M231.068 69.4329C231.068 69.4329 228.565 68.7662 227.807 67.6627C227.807 67.6627 219.871 75.4678 219.871 76.9047L226.187 88.1125C226.187 88.1125 226.187 92.1357 226.761 92.4231C227.335 92.7105 226.761 92.4231 226.761 93.5726C226.761 94.7221 225.038 102.194 225.613 103.343C226.187 104.493 226.761 103.631 226.187 105.355C225.613 107.079 224.177 116.275 224.177 116.275C224.177 116.275 229.345 114.551 236.81 117.425C244.274 120.299 253.174 116.275 253.174 116.275C253.174 116.275 250.877 111.103 251.452 109.378C252.026 107.654 250.016 104.493 250.016 104.493L248.581 78.0542C248.581 78.0542 250.59 66.2718 249.155 65.697L246.284 64.5475L237.09 63.4164C237.09 63.4164 234.8 69.1455 231.068 69.4329Z" fill="#D0CDE1"/>
<path d="M222.742 74.8931L219.871 76.9047C219.871 76.9047 218.435 81.2154 219.871 83.227C221.306 85.2387 221.88 88.1125 221.88 88.1125L227.622 87.5377L222.742 74.8931Z" fill="#D0CDE1"/>
<path d="M223.646 48.6045L222.351 48.0856C222.351 48.0856 225.058 45.1021 228.825 45.3615L227.766 44.1941C227.766 44.1941 230.355 43.1563 232.71 45.8804C233.947 47.3124 235.379 48.9956 236.272 50.8917H237.658L237.08 52.1673L239.105 53.4429L237.026 53.2138C237.223 54.315 237.156 55.4473 236.829 56.5173L236.885 57.5255C236.885 57.5255 234.475 53.7932 234.475 53.2743V54.5715C234.475 54.5715 233.18 53.4041 233.18 52.6258L232.474 53.5338L232.121 52.1069L227.766 53.5338L228.472 52.3663L225.765 52.7555L226.824 51.3286C226.824 51.3286 223.763 53.0149 223.646 54.4418C223.528 55.8687 221.998 57.6848 221.998 57.6848L221.292 56.3876C221.292 56.3876 220.232 50.5503 223.646 48.6045Z" fill="#2F2E41"/>
<path d="M225.377 106.539H111.289V186.759H225.377V106.539Z" fill="#F2F2F2"/>
<path d="M149.539 137.147H120.893V187.202H149.539V137.147Z" fill="#3F3D56"/>
<path d="M133.908 140.149H126.192V147.35H133.908V140.149Z" fill="#F2F2F2"/>
<path d="M144.241 140.149H136.524V147.35H144.241V140.149Z" fill="#F2F2F2"/>
<path d="M133.908 149.968H126.192V157.43H133.908V149.968Z" fill="#F2F2F2"/>
<path d="M144.241 149.968H136.524V157.43H144.241V149.968Z" fill="#F2F2F2"/>
<path d="M145.896 167.367C146.902 167.367 147.718 166.551 147.718 165.544C147.718 164.537 146.902 163.721 145.896 163.721C144.89 163.721 144.075 164.537 144.075 165.544C144.075 166.551 144.89 167.367 145.896 167.367Z" fill="#387AD6"/>
<path d="M215.773 132.395H159.143V179.964H215.773V132.395Z" fill="#3F3D56"/>
<path d="M237.299 121.641H99.367L108.564 102.395L110.622 98.0857L113.314 92.4503L115.373 88.141L117.758 83.1488H226.432L227.841 88.141L229.058 92.4503L230.649 98.0857L231.866 102.395L237.299 121.641Z" fill="#3F3D56"/>
<path d="M163.117 152.119H161.13V164.384H163.117V152.119Z" fill="#387AD6"/>
<path d="M163.117 153.942H161.13V155.434H163.117V153.942Z" fill="#F2F2F2"/>
<path d="M163.117 161.069H161.13V162.561H163.117V161.069Z" fill="#F2F2F2"/>
<path d="M168.913 152.119H164.111V164.384H168.913V152.119Z" fill="#387AD6"/>
<path d="M168.913 153.942H164.111V155.434H168.913V153.942Z" fill="#F2F2F2"/>
<path d="M168.913 161.069H164.111V162.561H168.913V161.069Z" fill="#F2F2F2"/>
<path d="M172.059 152.119H170.072V164.384H172.059V152.119Z" fill="#387AD6"/>
<path d="M172.059 153.942H170.072V155.434H172.059V153.942Z" fill="#F2F2F2"/>
<path d="M172.059 161.069H170.072V162.561H172.059V161.069Z" fill="#F2F2F2"/>
<path d="M175.039 152.119H173.052V164.384H175.039V152.119Z" fill="#387AD6"/>
<path d="M175.039 153.942H173.052V155.434H175.039V153.942Z" fill="#F2F2F2"/>
<path d="M175.039 161.069H173.052V162.561H175.039V161.069Z" fill="#F2F2F2"/>
<path d="M176.954 152.162L175.095 152.864L179.417 164.34L181.276 163.639L176.954 152.162Z" fill="#387AD6"/>
<path d="M177.597 153.868L175.737 154.57L176.263 155.965L178.122 155.264L177.597 153.868Z" fill="#F2F2F2"/>
<path d="M180.108 160.537L178.249 161.238L178.774 162.634L180.634 161.933L180.108 160.537Z" fill="#F2F2F2"/>
<path d="M213.952 152.119H209.15V164.384H213.952V152.119Z" fill="#387AD6"/>
<path d="M213.952 153.942H209.15V155.434H213.952V153.942Z" fill="#F2F2F2"/>
<path d="M213.952 161.069H209.15V162.561H213.952V161.069Z" fill="#F2F2F2"/>
<path d="M207.991 152.119H206.004V164.384H207.991V152.119Z" fill="#387AD6"/>
<path d="M207.991 153.942H206.004V155.434H207.991V153.942Z" fill="#F2F2F2"/>
<path d="M207.991 161.069H206.004V162.561H207.991V161.069Z" fill="#F2F2F2"/>
<path d="M205.01 152.119H203.023V164.384H205.01V152.119Z" fill="#387AD6"/>
<path d="M205.01 153.942H203.023V155.434H205.01V153.942Z" fill="#F2F2F2"/>
<path d="M205.01 161.069H203.023V162.561H205.01V161.069Z" fill="#F2F2F2"/>
<path d="M201.108 152.162L196.786 163.639L198.646 164.34L202.968 152.864L201.108 152.162Z" fill="#387AD6"/>
<path d="M200.466 153.868L199.94 155.264L201.8 155.965L202.325 154.57L200.466 153.868Z" fill="#F2F2F2"/>
<path d="M197.955 160.537L197.429 161.933L199.288 162.634L199.814 161.238L197.955 160.537Z" fill="#F2F2F2"/>
<path d="M215.773 164.384H159.143V165.544H215.773V164.384Z" fill="#F2F2F2"/>
<path d="M194.247 152.119H183.815V164.384H194.247V152.119Z" fill="#387AD6"/>
<path d="M191.681 154.771H186.382V157.091H191.681V154.771Z" fill="#F2F2F2"/>
<path d="M187.955 132.395H186.961V143.003H187.955V132.395Z" fill="#F2F2F2"/>
<path d="M187.458 144.66C188.373 144.66 189.114 143.918 189.114 143.003C189.114 142.087 188.373 141.345 187.458 141.345C186.544 141.345 185.802 142.087 185.802 143.003C185.802 143.918 186.544 144.66 187.458 144.66Z" fill="#F2F2F2"/>
<path d="M229.058 92.4503H113.314L115.372 88.141H227.841L229.058 92.4503Z" fill="#387AD6"/>
<path d="M231.866 102.395H108.564L110.622 98.0857H230.649L231.866 102.395Z" fill="#387AD6"/>
<path d="M243.987 77.4795C243.987 77.4795 242.325 81.7588 242.672 85.9927C242.735 86.7507 242.99 87.4802 243.413 88.1125L223.045 97.7917C223.045 97.7917 213.842 98.7454 216.138 102.769C218.435 106.792 226.761 100.757 226.761 100.757C226.761 100.757 248.581 97.5959 250.303 94.4348C252.026 91.2736 253.174 78.0542 253.174 78.0542L243.987 77.4795Z" fill="#A0616A"/>
<path d="M244.848 65.697H249.155C249.155 65.697 252.313 66.2718 253.174 72.0193C254.036 77.7669 254.897 79.2038 254.036 79.2038C253.174 79.2038 242.839 78.9164 242.839 78.629C242.839 78.3416 244.848 65.697 244.848 65.697Z" fill="#D0CDE1"/>
<path d="M101.09 151.546C113.29 151.546 123.181 141.646 123.181 129.434C123.181 117.222 113.29 107.322 101.09 107.322C88.8901 107.322 79 117.222 79 129.434C79 141.646 88.8901 151.546 101.09 151.546Z" fill="#387AD6"/>
<path opacity="0.1" d="M101.09 148.45C111.582 148.45 120.088 139.936 120.088 129.434C120.088 118.932 111.582 110.418 101.09 110.418C90.5982 110.418 82.0926 118.932 82.0926 129.434C82.0926 139.936 90.5982 148.45 101.09 148.45Z" fill="black"/>
<path d="M100.18 140.655V137.888C98.7822 137.86 97.3362 137.367 96.4928 136.682L97.0712 134.846C98.0735 135.598 99.289 136.01 100.541 136.024C102.252 136.024 103.409 134.901 103.409 133.339C103.409 131.831 102.469 130.9 100.686 130.078C98.2279 128.981 96.7097 127.721 96.7097 125.337C96.7097 123.062 98.1315 121.336 100.349 120.925V118.157H101.843V120.815C102.957 120.831 104.044 121.163 104.976 121.774L104.373 123.583C103.479 122.971 102.42 122.645 101.337 122.651C99.4811 122.651 98.7822 123.912 98.7822 125.008C98.7822 126.433 99.6739 127.145 101.771 128.132C104.253 129.283 105.506 130.708 105.506 133.147C105.506 135.312 104.18 137.34 101.698 137.805V140.655H100.18Z" fill="#F2F2F2"/>
</svg>
